<svg width="65" height="65" viewBox="0 0 65 65" fill="none" xmlns="http://www.w3.org/2000/svg">
    <g clip-path="url(#clip0)">
        <rect width="65" height="65" rx="32.5" fill="#3B451F"/>
        <path d="M29.123 53.0057L55.35 38.641" stroke="#E4F0E6" stroke-linecap="round" stroke-linejoin="round"/>
        <path d="M29.1237 53.0058L10.4888 45.1052" stroke="#E4F0E6" stroke-linecap="round" stroke-linejoin="round"/>
        <path d="M55.3501 32.8951L55.3501 38.641" stroke="#E4F0E6" stroke-linecap="round" stroke-linejoin="round"/>
        <path d="M10.4888 40.7958L10.4888 45.1052" stroke="#E4F0E6" stroke-linecap="round" stroke-linejoin="round"/>
        <path d="M39.1309 40.0776L39.1066 47.0699" stroke="#E4F0E6" stroke-linecap="round" stroke-linejoin="round"/>
        <path d="M44.415 36.8864L55.35 30.7404" stroke="#E4F0E6" stroke-linecap="round" stroke-linejoin="round"/>
        <path d="M29.1237 45.8235L10.4888 38.6411" stroke="#E4F0E6" stroke-linecap="round" stroke-linejoin="round"/>
        <path d="M29.1237 47.9781L10.4888 40.7958" stroke="#E4F0E6" stroke-linecap="round" stroke-linejoin="round"/>
        <path d="M29.123 47.9781V53.0058" stroke="#E4F0E6" stroke-linecap="round" stroke-linejoin="round"/>
        <path d="M54.272 23.7078L55.35 30.7404" stroke="#E4F0E6" stroke-linecap="round" stroke-linejoin="round"/>
        <path d="M29.123 37.2047L29.123 45.8236" stroke="#E4F0E6" stroke-linecap="round" stroke-linejoin="round"/>
        <path d="M10.4885 38.6412L11.1787 30.0223" stroke="#E4F0E6" stroke-linecap="round" stroke-linejoin="round"/>
        <path d="M10.2846 30.1834L9.71341 31.2033C9.25892 32.0147 9.14476 32.9054 9.39605 33.6794C9.64735 34.4533 10.2435 35.0472 11.0534 35.3303C11.8633 35.6134 12.8205 35.5626 13.7146 35.1891C14.6086 34.8155 15.3662 34.1497 15.8207 33.3383L16.3548 31.9829L10.2846 30.1834ZM16.3548 31.9829C15.9003 32.7944 15.2521 35.0404 15.5033 35.8144C15.7546 36.5884 16.3508 37.1822 17.1607 37.4654C17.9706 37.7485 18.9278 37.6977 19.8219 37.3241C20.7159 36.9505 22.4571 34.7381 22.9116 33.9267L16.3548 31.9829ZM22.9116 33.9267C22.4571 34.7381 21.3593 37.1755 21.6106 37.9494C21.8619 38.7234 22.4581 39.3173 23.268 39.6004C24.0779 39.8835 25.0351 39.8327 25.9292 39.4591C26.8232 39.0856 27.5808 38.4198 28.0353 37.6084L29.1232 35.7682L10.2846 30.1834L14.6053 26.8157L25.9292 18.9157L28.0353 31.2033L29.1232 35.7682" fill="#5C4E24"/>
        <path d="M10.2846 30.1834L9.71341 31.2033C9.25892 32.0147 9.14476 32.9054 9.39605 33.6794C9.64735 34.4533 10.2435 35.0472 11.0534 35.3303C11.8633 35.6134 12.8205 35.5626 13.7146 35.1891C14.6086 34.8155 15.3662 34.1497 15.8207 33.3383L16.3548 31.9829M10.2846 30.1834L16.3548 31.9829M10.2846 30.1834L29.1232 35.7682M10.2846 30.1834L14.6053 26.8157L25.9292 18.9157L28.0353 31.2033L29.1232 35.7682M16.3548 31.9829C15.9003 32.7944 15.2521 35.0404 15.5033 35.8144C15.7546 36.5884 16.3508 37.1822 17.1607 37.4654C17.9706 37.7485 18.9278 37.6977 19.8219 37.3241C20.7159 36.9505 22.4571 34.7381 22.9116 33.9267M16.3548 31.9829L22.9116 33.9267M22.9116 33.9267C22.4571 34.7381 21.3593 37.1755 21.6106 37.9494C21.8619 38.7234 22.4581 39.3173 23.268 39.6004C24.0779 39.8835 25.0351 39.8327 25.9292 39.4591C26.8232 39.0856 27.5808 38.4198 28.0353 37.6084L29.1232 35.7682" stroke="#E4F0E6" stroke-linecap="round" stroke-linejoin="round"/>
        <path d="M29.123 47.9781L38.7856 42.9505" stroke="#E4F0E6" stroke-linecap="round" stroke-linejoin="round"/>
        <path d="M29.1234 45.8236L38.786 40.7959" stroke="#E4F0E6" stroke-linecap="round" stroke-linejoin="round"/>
        <path d="M44.9976 38.6411L55.3503 32.8952" stroke="#E4F0E6" stroke-linecap="round" stroke-linejoin="round"/>
        <path d="M28.7784 35.7393L29.4188 37.6122C30.0489 38.3477 31.0957 38.8165 32.329 38.9154C33.5623 39.0143 34.8811 38.7353 35.9953 38.1396C37.1095 37.544 37.9277 36.6806 38.2701 35.7393C38.6124 34.798 37.6906 32.3339 37.0606 31.5983L28.7784 35.7393ZM37.0606 31.5983C37.6906 32.3339 39.4976 34.3247 40.731 34.4237C41.9643 34.5226 43.2831 34.2435 44.3973 33.6479C45.5115 33.0523 46.3297 32.1888 46.6721 31.2475C47.0144 30.3062 45.9728 28.1929 45.3428 27.4574L37.0606 31.5983ZM45.3428 27.4574C45.9728 28.1929 47.8996 29.833 49.133 29.9319C50.3663 30.0308 51.6851 29.7518 52.7993 29.1562C53.9134 28.5605 54.7317 27.6971 55.0741 26.7558C55.4164 25.8145 55.2548 24.8725 54.6248 24.1369L53.833 23.2125L28.7784 35.7393L25.8389 18.9157L35.9953 14.1235L47.865 21.012L53.833 23.2125" fill="#5C4E24"/>
        <path d="M28.7784 35.7393L29.4188 37.6122C30.0489 38.3477 31.0957 38.8165 32.329 38.9154C33.5623 39.0143 34.8811 38.7353 35.9953 38.1396C37.1095 37.544 37.9277 36.6806 38.2701 35.7393C38.6124 34.798 37.6906 32.3339 37.0606 31.5983M28.7784 35.7393L37.0606 31.5983M28.7784 35.7393L53.833 23.2125M28.7784 35.7393L25.8389 18.9157L35.9953 14.1235L47.865 21.012L53.833 23.2125M37.0606 31.5983C37.6906 32.3339 39.4976 34.3247 40.731 34.4237C41.9643 34.5226 43.2831 34.2435 44.3973 33.6479C45.5115 33.0523 46.3297 32.1888 46.6721 31.2475C47.0144 30.3062 45.9728 28.1929 45.3428 27.4574M37.0606 31.5983L45.3428 27.4574M45.3428 27.4574C45.9728 28.1929 47.8996 29.833 49.133 29.9319C50.3663 30.0308 51.6851 29.7518 52.7993 29.1562C53.9134 28.5605 54.7317 27.6971 55.0741 26.7558C55.4164 25.8145 55.2548 24.8725 54.6248 24.1369L53.833 23.2125" stroke="#E4F0E6" stroke-linecap="round" stroke-linejoin="round"/>
        <path d="M44.415 36.8864L44.415 44.0746" stroke="#E4F0E6" stroke-linecap="round" stroke-linejoin="round"/>
        <path d="M38.9942 40.4945L39.1127 38.8857C39.1247 38.723 39.154 38.56 39.2003 38.3987L39.2129 38.3548C39.3646 37.8262 39.7035 37.3334 40.183 36.9442V36.9442C40.4429 36.7332 40.7389 36.557 41.0585 36.4229L41.6661 36.168C41.9283 36.058 42.2111 35.9981 42.4924 35.993V35.993C42.9289 35.985 43.3381 36.1092 43.6459 36.3431L43.7781 36.4436C44.1221 36.705 44.3482 37.0595 44.4247 37.4572L44.5851 38.2922C44.6298 38.5245 44.6522 38.7612 44.6522 39.0003V39.0003" stroke="#E4F0E6" stroke-linecap="round" stroke-linejoin="round"/>
    </g>
    <defs>
        <clipPath id="clip0">
            <rect width="65" height="65" rx="32.5" fill="white"/>
        </clipPath>
    </defs>
</svg>
